<mxfile host="65bd71144e">
    <diagram id="HIP3nbAZw_EuaXWnEj3U" name="Page-1">
        <mxGraphModel dx="446" dy="332" grid="1" gridSize="10" guides="1" tooltips="1" connect="1" arrows="1" fold="1" page="1" pageScale="1" pageWidth="850" pageHeight="1100" math="0" shadow="0">
            <root>
                <mxCell id="0"/>
                <mxCell id="1" parent="0"/>
                <mxCell id="7" value="http://ics2o.mths.ca" style="swimlane;whiteSpace=wrap;html=1;" parent="1" vertex="1">
                    <mxGeometry x="40" y="40" width="760" height="480" as="geometry"/>
                </mxCell>
                <mxCell id="14" value="" style="shape=image;verticalLabelPosition=bottom;labelBackgroundColor=default;verticalAlign=top;aspect=fixed;imageAspect=0;image=data:image/png,iVBORw0KGgoAAAANSUhEUgAAALkAAAChCAIAAAAUSon9AAAAAXNSR0IArs4c6QAAGQ9JREFUeJztnWtUE2fewCeZSSYJJCSQAJFwE/DGJUABl4qsgFbPSttFXVtr2/Vy2u7p6bZn37Nnz57zfnjfL/vp/dCzHrdezp66Xna10i7WFRXLpQoqyC5yUcAAcg+XEMg9k8xk5v0wSK1SCDjPTILz66mgkuf/h/x8Zua5/B8BRVEQD48fCLlOgCdo4F3h8RfeFR5/4V3h8RfeFR5/4V3h8RfeFR5/4V3h8RfeFR5/4V3h8RfeFR5/4V3h8RfeFR5/4V3h8ReE6wQCC4IgPB4PQRAURQkEAhiGxWKxWCzmOq+A4CV1ZWxszGg0TkxMmEwms9k8MzNjs9kgCEIQBEVRBEEEAgFFUT6fz+v1er1eCIJkMplSqQwPD1er1VFRUVqtVqfTiUQirr8V9hC8JGudLBaLwWDo7e3t7++fnJyMjIyMiYmJjo7WaDQREREqlUqhUAgEggVacDqdVqvVbDabTKaJiQmj0TgyMiKTyRITE5OSktasWRMTE8PiN8QBK9yVzs7Ojo6OBw8e+Hy+tWvXJicnr169WqvVMtW+1Wp9/PhxX1+fwWAwmUypqanp6el6vV4ikTAVInBYma48fPiwubn5/v37SUlJGRkZaWlparUadFCPx/PgwYOOjo7W1tbExMScnJy8vLyVdJFaUa5MTU3V19ffuXNHp9Pl5ubm5ORwdVva2dnZ3Nzc0tKi1+sLCgrWrFnDSRrMskJc6erqqqurGxwc3Lx586ZNm1QqFdcZzXLnzp36+nqv11tUVFRQUMB1Oi9E0Lty//79GzduQBBUXFycm5vLdTrz09/fX1tb293dvW3bttdee43rdJZJELvS0dFRWVmJouj27ds3bNjAdTqLYzKZqqqqWlpadu7cWVJSwnU6SyYoXRkZGbl06ZLD4SgtLU1LS+M6naXR3z947drVsTHjm2++mZOTw3U6SyD4XPn666+bmprKyspeffVVrnNZDsMj4xq1ymgcraioEIvFe/bsYfAZHijB5Epra+uFCxdycnJ279698LhZwGKx2r1ePFITTv/29u3b5eXl27Zt27lzJ9epLU7QuHLu3LnBwcG33347KSmJ61yWCUmSwyPj2miNWPzDoIvb7b5w4cLk5OT+/ft1Oh2nCS5CELjS09Nz5syZ7OzssrIyrnN5IaZnrBRFRYQrn/+re/fu/f3vf//lL39ZVFTERWp+EeiuVFdXX79+/cCBA0F3D/sMBEEMj47H6rQIDM/7BRaL5fTp03K5/NChQ6xn5xcB7crp06etVuuhQ4dCQ0O5zuVFmTLPwDCsUioW/rKKiooHDx588MEH0dHRbKXmLwHqit1uP378eHx8/N69e7nOhQE8Xu/4xFScTuvPLXljY+P58+c/+OCDQOtKA9GV0dHRv/zlL1u3bi0uLuY6F2aYNJlRFA1T+Ns79vX1HTt2rKysbNOmTYBTWwIB50pPT8/Ro0fff//9V155hetcmMGNeczmGV3M0q4pZrP56NGj+fn5gTMnEFiudHZ2njhx4je/+c369eu5zoUxxiZMoSEyeWjIUl/odruPHDmSlpYWIKMvAbQ2mxblk08+WUmiOJ1uiqSWIQoEQVKp9Pe//31XV9eVK1cApLZkAsWVnp4eWpSUlBSuc2ESi9WmDJMv++UwDP/ud7/r7OysqqpiNK/lEBCujI6OHj169KOPPlphotjsThiGZTLpizQCw/Bnn3127969W7duMZfacuDeFYfD8cUXX7z33ntBsa5gSVhfrFOZA0XR3/72t5WVla2trUzktUy4d+X48ePFxcXBNTvvDxarXSJBJRKUkdaUSuXHH3986tSp4eFhRhpcBhy7cubMmdjY2GBc+LMwJElarPYwJjqVOeLj43/961+fPHkSx3EGm/UfLl2pqamZnp5+6623OMwBEBarXR4qEzO9iD87Ozs/P/+vf/0rs836CWeu9PX1VVZWHj58mKsEwIEThNXmYORO5Xl+8YtfCASCa9eugWh8YThz5cyZMwcOHJDLgfxAucVqtSvD5PBPzCe/OAcPHqyrq+vp6QHU/k/BjSv/+Mc/MjIyMjIyOIkOFI/H63K5AXUqNCiKvv/+++fOnQMXYl44cKW9vb23t3f37t3sh2YBGIE1mgjQSzzT0tJSU1MvXrwINMozcODKV199tW/fPvbjsgMCw1KGnpMXZu/evW1tbWxeidh2paKiIiMjY4WNz3LF3r17y8vLWQvHqitjY2P19fUr7OpDkuT91vYrV6vsDkdvX//Fby6NT0yyE1qv12s0mtraWnbCserKpUuXysrKEGRFFQjCcTw8XFV/p/HiN5cwD9be8bC94yFr0cvKyr799lu6mhBo2HOlq6trenp68+bNrEVkBxRFdTGrfD7f5k35aRvWF2/ZnPNKJmvR1Wr1li1b/vWvf7EQiz1XKisrS0tLWQvHJiOjRgiCVifEQxBUvKUwnN0qDaWlpbdu3bJaraADseRKR0cHRVF6vZ6dcCwzMDiki1nF1bVVJBJt376dhZFclly5cePG9u3b2YnFPgODQwnxcRwmsH379rt37zocDqBR2HClt7cXw7AVOUpLMzA4nJjApSswDBcVFVVXVwONwoYrdXV1K2b3xrz8z3//QZ/O8V6ekpKSuro6oCGAu2KxWLq6uvLz80EHesmRy+V6vb6hoQFcCOCuNDQ0rLzn5MCksLAwuF25c+dOQG2eYxDztIWrJWrzkpycjGHYyMgIoPbBumIwGFQqVWRkJNAonOB2Y27ME2jla3/2s581NTUBahysK83NzXl5eUBDcIXFage6SGV55OXlNTc3A2ocrCstLS0rZlvy0zicLgqCQkNkXCfyLOHh4SqV6vHjxyAaB+hKb2+vVqtdAaVTnscakJ0KTWZmZltbG4iWAbrS0dGxIsffbHYHgsAyaYCezqDX69vb20G0DNCVhw8fBlq1GUawWO1hYYuUZ+KQ6OhoDMNATCWCcsXtds/MzKxatQpQ+1xhsdqkElSCBvRJZevXr+/q6mK8WVCuGAyGtWvXAmqcK3w+0mK1KwO4U6FZs2aNwWBgvFlQ0+i9vb3JycmAGvcTiqJIkvSRJEVSJEmSFEWSJEVRFEmR1Bz0F9IfIQia+wSCIAgSQIInHwQQhHm8CAzb7A6BQCCc/V8gnP1PIJxFIBQKuS3VnJKScvXqVcabBeVKf38/6KdliqIIwufz+Qifz+cjfbOQPpIkfT4fSUIQ9MP7N/sO0r8KfvSZAKLfWsEPajwJ8eQDBVE+wmd3uMJVCoFASFtG+khaR5L2bxbKR5JCgUAIC2GhUAgLYRiGhUIEhmEYhpHZT4DKFBERYbfbvV4vs8cngXJleHg4ISGBqdZ8Ph+OEzhBEASB4z7CRxCEz+cjEQSefQ9gIQLDYpEIhoVCmP6F4X/cpqmZcKXCzwsQSVK0sD6SlpjECQLzeAifj/YbgWEEQRAERhBEhCCICBEhCAwzdksQHx8/NDTEbNcOxJWZmZmwsLBlv5wkSa8X9+K414vjOOHFcXr1lwhBRCJYJpOIEARBYHCbQJ/H4/G6MUztd31AoVAgFC60UI4gfARBEIQPJwgXhhF2AscJgVAgEiFikUgsEonFIrFYtGzdY2Njh4eHg8AVo9G41Ccgj8fr8Xg9Xq/HixMEIRaLxCKxWCwODZGJxSKhkOPaH/SIPoMdFYLACPKs6z6fz4sTXi+Oeb02h9Pr9YrFIlQsRsViFBU/XcV/UWJiYvr6+pjKdjZnZpujGR8f96fss8frxTAPhnkwzIsgMIqKpRJJWJic8VIUL4jLjeEEESWPAB0IhmHpj7cterxejwfHPB6LzU6RlEQilkhQqQRddM4yOjr6zp07zKYHxBWTyRQX95NrCt1uzOXGXG5MAEFSqUQeGqJRh3PecywAhyP6dKcCyUPoXseNedxuj8Vqh4VCqVQik0l/aqRHo9GYTCZmkwHiyvT0dFZW1jN/6PXiDqfL6XTDsFAmk0ZHqkUithe+EwThdrsxj1chD0VRv3YdO5wuKDCmCWEYDg2R0Zl4vF6XC5syzwggKCREFhoie+aKFhIS4nK5mE0A1L2tUvnDySduzGOzOzDMIw8NiY7iQJE5xsYn6m7W32/r+MN/faqNjvLnJRarPVy1/Pt0QND9jUqp8Hi8dodzeHRcHiqTh4agT3UzUqnU5XLJZIxZDuRts9vtCoWC1t9qtXu9eJhCHqUBfr1flFhdTFZmxiNDb3SUX8uvbHaHCEECdpoQgiAUFaOoOCJcabU5xienQmRSZZiC7mMUCoXNZmPQFSB3CW63WyqV2uwO49gkiqK6mGi5fDmFo0EwMDicmBDvzxMNRVGBuaDpeQQCgTJMHh+7SigUGscmnU43BEGhoaFOp5PBKKAuBxaLzely61ZFc3jFmcOL43fu3sNxXCQSPerpzdKnL/oSHMdNU9NSiQQN7GnCZwhXhcmkkgmTmaRIiUTidrsZbJz5foUkSYFAYHe4tNGaQBDFarUd+eJkRIRqW8mWqEj16KhxdeIiA8p1N+v/8N//+3+fH6m7eZOtNBlDIkG1UZop8wwiEjFbP4H595IgCKFQKJVK3G4P4437CYIgKDo7AlFx+UqcLiY9dQMEQSKRGEGQOF0M/Vdut4ckyWde63K7L1depz+/29S8bu2apMREdtNnAJlUSpIUQRAMtsm8KyRJQpDA5yNc7mffBtaQSFDaFYvF2tbx8OMPZyuj9g8MxsXq5iYHMI/n+Z+m5cerhGw2u4vRnpwdfOTsnCaDbTLvikAgcDodU6aJ1NRUxhtfKlNmMwRBERGzRS4eDww+fQGa9/RBjTo8OzOjpbWdfm4qeHUji/kyxvfffz86MpypZ3INK/OuIAiCIEh1dXUguBKmUEAQ5HS6wlWqmRnLwOBgXk72oq9675239BnpXq/3laygLALidrtra2s1Gg2z06vM39vCMIwgSGRk5Jdffsl440tFo1G/kqU/d6H864rLPX2PxWJxTd3Nh13di74wI21DTnZmMJ4uTx8rmp+fL5VKmV2/AlEA+PTTTymK+uabb/70pz91d3eDCLEkpqdn3G6MoiiCIDxeL9fpAKS5ufmPf/zjjRs3KIo6cuSIwWBgsHEgz7Risdjj8ezataulpeWf//xnZGRkcXFxIndPEyrV7IQDvSyKqzSA8vDhw5qaGgiCDhw4QK90drlcISFMDoECcUWhUNjtdhRFs7Ozs7Ozb926df78eYVCkZ+fvyK3IXIIQRCNjY13795FEGTTpk1P7wi22WzMHncAxJWwsDCLxaJWq+nfFhYWFhYWtrS0/Pvf/7548WJWVpZer19JB2CyD0mS7e3tbW1t9C7gnTt3Pn+qm8PhCAJXwsPDzWbzMwv46D5mamqqo6Ojurr61KlT69evX7du3dq1a8PDw0GksfIYHx9/9OhRd3d3Z2dnampqWlrarl275hXC4/EwfGMLyJUFFtqo1eqioqKioiKLxfLo0aOenp6qqiqhULh69erExMSEhISYmBgQKQUpJEkODw/39/f39/f39fXJZLLk5OS8vLz33ntv4Qlkk8mk0WiYTQaIK1FRUf/5z38W/hqlUrlx48aNGzfStdcHBgYGBwcbGhomJyd1Op1Op4uJidFqtVqtViIJ3CUBjON0Oo1G49jY2Ojo6MjIiNFojI2NjYuLS09Pf/311+cu64syPj4eFeXXAh3/AeLKqlWrllTJmXaCrilHVyYyGo1DQ0NNTU3j4+MSiSQqKkrzhIiIiIiIiEArkrMMMAwzm81ms9lkMplMpsnJycnJSYqioqOjtVptfHx8fn6+TqdbXtlco9Go1WqZTRiIK5GRkVNTU8t7rUQiSU5Ofvpex2w2T05Omkymqakpg8FgNpunp6dRFFWpVEqlUqlUhoWFhYWFKRSK0NBQuVweGhoaIKt3fT6f/Qk2m81ms1meMDMzQ1FUeHh4RESEWq2OjY3Nzs6OjIx8ej3hizAyMrJlyxZGmpoD1JqBqKioZez8mBe6I3nmuclqtdI/dKvVarVaJyYmbDYb/a44HA6JRBISEhISEiKVSmUymeQJKIqKnyASiejpCPgJczsT56LMDUORs1vC6E099JY23PsEj8eDYRiGYW632+12u1wul8vldDpxHKf1lcvlCoVCoVCsWrVq/fr1SqVSpVIBrUwzODgYHx/PbJugXElMTOzv7wdXJ4HuS37qx+F0Op1OJ/2eud1u7AkOh4N+d3Ecx3F87o33+Xzk3BbTJ1uc6QH+OYHmlEIQRPQEsViMoiiKonK5XKPRSKVS2k6ZTEabCujbXxiHwyEQCJgdiAPoSlJSUldXF1cVKOlOhZPQgUBvb29SUhLjzYK6rqekpIAo68DjD48ePVqzZg3jzYJyRaVSCQSC6elpQO3zLEB3d/e6desYbxbg80JqauqDBw/Atc8zLxaLBcMwxgdXwLqSnp7e0dEBrn2eeWlvb09PX3yjwjIA6EpaWprBYHh+8TMPUFpbWwGd6QV2zCo9PX3RwX4eBsEwrK+vD9DqVbCu5OTkgCv5zfM8zc3NOTk5gBoH60pmZqbBYGB2pyTPAjQ2NtLTsSAAPm+Sn59/+/Zt0FF46Ol6m80GYmSFBrgrBQUFQA9A4pmjvr6+oKAAXPvAXYmJiVGpVPzDM2goirp9+3ZhYSG4EGzM3W/ZsqW2tpaFQC8ztbW1ubm5QGcr2XAlKytrZmamv7+fhVgvLdXV1SUlJUBDsLQm6LXXXquqqmIn1ktIfX396tWrGV8I9wwsufLqq68ajUa+awHEtWvXduzYAToKe2sNd+7ceeXKFdbCvTzU1NSkpKTExsaCDsSeKxs3bnS5XICOzHppwXH88uXLpaWlLMRidQ3zm2++WVFRwWbEFc+lS5d+/vOfM74VaF5YdWXdunVxcXH8TS5TDA4ONjc379q1i51wbO+N2LNnz9WrVxkv//1yUl5evmfPHtbCse2KXC7fvXv3hQsXWI678vjuu+8UCgWbR6VzsOeqsLBQKBTyI7kvwujo6JUrV/bt28dmUG725+3fv//bb78dGRnhJPoK4OzZs++88w6zJTMWhRtXlErlu++++7e//Y2T6MFOeXl5bGwsuHUqPwVn+35zc3PXrl179uxZrhIIUhobGw0Gw/79+9kPzeUe8V/96ldTU1PV1dUc5hBcDA4Onj9//vDhw5xE57iewIcfflhTU9PW1sZtGkGB0+k8ceLEwYMH/TkfEAQcuxISEvLRRx99+eWXAwMD3GYS+Bw7dqy4uDgzM5OrBLivU5KQkHDo0KGjR4/yA3QLcPz48dWrV2/dupXDHLh3BYIgvV6/e/fuP//5zxaLhetcApFTp06FhoayNpb/UwSEK/Ry/23btn3++efWHx+zwXP69GkIgt59912uE4EEzB4b8oLcvHmzpqbms88+i4jg/nDEQODUqVMQBB08eJDrRKCAcwWCoNu3b1++fPmTTz5hYfFOgHPs2DG5XB4IPQpNwLkCQVBLS8vp06c//PDDQDhVhhMcDsexY8eSkpI4v0d5mkB0ha5idfz48TfeeAPohpfAZGBg4MSJE1u3bgW9Ln+pBKgr9IHgJ0+eTEhIeOutt7jOhT3u3r174cKFQ4cOAaqL8SIEris0586dGx8fP3DggP8lo4OXr776qq+v7/DhwyCqMr04ge4Kvfnl66+/fvvtt+nC2iuS4eHhs2fPJiYmsrwkZUkEgSt0BYBz585FRETs27ePq6Kx4Lh+/fr169f379+fm5vLdS4LERyu0Fy9erWqqmrv3r1clc1lnP7+/osXL9L/BgK/IG8wuUJ3MOXl5T6fb9euXYzXEGcTDMMuXbrU1ta2Z8+eYDmrLchcobl3715FRcWGDRtKS0tVKhXX6SyZGzduVFZWlpSUvPHGG1znsgSC0hWaqqqqq1evbtq0aceOHQrFPKdyByDff//9tWvXUlNTX3/99aCzPIhdoU+GvH79+nfffZeXl1dcXAy6UMCywXG8tra2urp6w4YNO3bsCNg8Fya4XaGhKKqmpqa2tlar1RYWFgbUKNbQ0FBDQ0NTU1N+fn5JSQk7m0kBsRJcmeP+/fsNDQ1DQ0P5+fm5ubkczj7a7fbm5ubGxkYcxwsKCgoLC1fAQWoryhWamZmZpqam5uZmHMezsrIyMjJAHJAyLyaTqb29vbW1dWxsLCcnZ+PGjRyeYM44K9CVOSYmJlpbW9vb20dGRujDfUHUKTGbzb29vQaDobu7G4bh9PT0zMzMlJQUZqMEAivZlTlwHO/u7jYYDL29vUajMSoqKjY2NiYmJjo6WqPRqNVq+ggyf7BarSaTaWJiwmg0joyMDA0NyeXy5OTklJSUdevWBd2jzZJ4KVx5BqPRODw8bDQaJyYmJicnp6enKYpSKBT0qXMoiiIIIhQKKYqizzWkjzC02WwEQSgUCrVaHRUVpdVqdTpdXFzcCrgR8ZOX0ZV5sdlsDocDwzCPx0MQBEmSAoGAPtqQPsJQLpe/PFrMC+8Kj78Eyjp+nsCHd4XHX3hXePyFd4XHX3hXePyFd4XHX3hXePyFd4XHX3hXePyFd4XHX3hXePyFd4XHX/4fbwCTRlV8rbIAAAAASUVORK5CYII=;" parent="7" vertex="1">
                    <mxGeometry x="385" y="100" width="310.25" height="270" as="geometry"/>
                </mxCell>
                <mxCell id="8" value="&lt;div style=&quot;&quot;&gt;&lt;span style=&quot;background-color: transparent;&quot;&gt;&lt;font style=&quot;font-size: 21px; color: rgb(0, 0, 0);&quot;&gt;Volume of a Sphere, in JS&lt;/font&gt;&lt;/span&gt;&lt;/div&gt;&lt;div&gt;&lt;font style=&quot;font-size: 21px; color: rgb(0, 0, 0);&quot;&gt;&lt;br&gt;&lt;/font&gt;&lt;/div&gt;&lt;div&gt;&lt;font style=&quot;font-size: 21px; color: rgb(0, 0, 0);&quot;&gt;&lt;br&gt;&lt;/font&gt;&lt;/div&gt;&lt;div style=&quot;&quot;&gt;&lt;font style=&quot;font-size: 21px; color: rgb(0, 0, 0);&quot;&gt;Formula&lt;/font&gt;&lt;/div&gt;&lt;div style=&quot;&quot;&gt;&lt;font color=&quot;#000000&quot;&gt;&lt;span style=&quot;font-size: 21px;&quot;&gt;V = (4 / 3) x&amp;nbsp;&lt;/span&gt;&lt;/font&gt;&lt;span style=&quot;background-color: rgb(255, 255, 255); color: rgb(31, 31, 31); font-family: &amp;quot;Google Sans&amp;quot;, Arial, sans-serif; font-size: 20px;&quot;&gt;π x r&lt;/span&gt;&lt;span style=&quot;background-color: rgb(255, 255, 255); color: rgb(0, 29, 53); font-family: &amp;quot;Google Sans&amp;quot;, Arial, sans-serif; font-size: 18px;&quot;&gt;³&lt;/span&gt;&lt;/div&gt;&lt;div style=&quot;&quot;&gt;&lt;font style=&quot;font-size: 21px; color: rgb(0, 0, 0);&quot;&gt;&lt;br&gt;&lt;/font&gt;&lt;/div&gt;&lt;div style=&quot;&quot;&gt;&lt;br&gt;&lt;/div&gt;&lt;div style=&quot;&quot;&gt;&lt;font style=&quot;font-size: 21px; color: rgb(0, 0, 0);&quot;&gt;&lt;br&gt;&lt;/font&gt;&lt;/div&gt;&lt;div style=&quot;&quot;&gt;&lt;font style=&quot;font-size: 21px; color: rgb(0, 0, 0);&quot;&gt;&lt;br&gt;&lt;/font&gt;&lt;/div&gt;&lt;div style=&quot;&quot;&gt;&lt;font style=&quot;font-size: 21px; color: rgb(0, 0, 0);&quot;&gt;&lt;br&gt;&lt;/font&gt;&lt;/div&gt;&lt;div style=&quot;&quot;&gt;&lt;font style=&quot;font-size: 21px; color: rgb(0, 0, 0);&quot;&gt;Volume is:&lt;/font&gt;&lt;/div&gt;" style="text;strokeColor=none;align=left;fillColor=none;html=1;verticalAlign=middle;whiteSpace=wrap;rounded=0;" parent="7" vertex="1">
                    <mxGeometry x="45" y="50" width="302" height="390" as="geometry"/>
                </mxCell>
            </root>
        </mxGraphModel>
    </diagram>
</mxfile>